<svg viewBox="0 0 32 24" fill="none" xmlns="http://www.w3.org/2000/svg" clas="icon icon-arrow">
    <path
        d="M0 13.0455L28.0749 13.0455C28.7234 13.0455 28.9965 12.9583 29.5767 12.7841C29.8497 12.697 29.9521 12.7841 29.9863 13.0019C30.0204 13.1761 29.8156 13.3068 29.6108 13.3939C29.2695 13.5246 28.8941 13.7424 28.7576 13.8731L22.4433 20.7121V23.5L32 13.0455L32 10.9545L22.4433 0.5V3.28787L28.7576 10.1269C28.8941 10.2576 29.2695 10.4754 29.6108 10.6061C29.8156 10.6932 30.0204 10.8239 29.9863 10.9981C29.9521 11.2159 29.8497 11.303 29.5767 11.2159C28.9965 11.0417 28.7234 10.9545 28.0749 10.9545L0 10.9545V13.0455Z"
        fill="white"></path>
</svg>