<svg width="21" height="21" viewBox="0 0 25 25" fill="none" xmlns="http://www.w3.org/2000/svg"
    class="icon icon-earth">
    <path
        d="M12.5 24C18.8513 24 24 18.8513 24 12.5C24 6.14873 18.8513 1 12.5 1C6.14873 1 1 6.14873 1 12.5C1 18.8513 6.14873 24 12.5 24Z"
        stroke="black" stroke-width="2" stroke-linecap="round" stroke-linejoin="round"></path>
    <path
        d="M4.28516 18.5233L5.61875 17.7759C5.75271 17.7008 5.86365 17.5951 5.94095 17.4688C6.01824 17.3425 6.0593 17.1998 6.06018 17.0546L6.08334 13.2244C6.0843 13.0643 6.13402 12.9078 6.22675 12.7729L8.49274 9.47612C8.55972 9.37868 8.64744 9.29498 8.75053 9.23015C8.85362 9.16532 8.96989 9.12074 9.09221 9.09914C9.21454 9.07755 9.34032 9.07939 9.46185 9.10456C9.58337 9.12974 9.69807 9.1777 9.79891 9.24552L12.0436 10.7552C12.2337 10.8831 12.4695 10.9381 12.7022 10.9089L16.2972 10.4569C16.5177 10.4292 16.7198 10.3277 16.8654 10.1715L19.3957 7.45742C19.5493 7.29266 19.6287 7.07933 19.6174 6.86168L19.484 4.28516"
        stroke="black" stroke-width="2" stroke-linecap="round" stroke-linejoin="round"></path>
    <path
        d="M19.2925 21.8092L17.9706 20.502C17.8469 20.3797 17.6925 20.2921 17.5232 20.2483L14.8799 19.5637C14.6452 19.5029 14.4416 19.3589 14.3079 19.1592C14.1741 18.9594 14.1197 18.7181 14.155 18.4812L14.4488 16.5122C14.4736 16.346 14.5416 16.189 14.6462 16.0564C14.7508 15.9238 14.8883 15.8203 15.0455 15.7558L18.7965 14.2171C18.9698 14.146 19.16 14.1252 19.3448 14.1572C19.5297 14.1891 19.7014 14.2725 19.8399 14.3975L22.9064 17.1655"
        stroke="currentColor" stroke-width="2" stroke-linecap="round" stroke-linejoin="round"></path>
</svg>