<svg viewBox="0 0 160 16" fill="none" xmlns="http://www.w3.org/2000/svg">
    <path
        d="M66.98 11.4073C67.6098 9.52484 68.2085 7.80039 68.756 6.05954C68.923 5.52889 69.1604 5.28016 69.7345 5.32194C70.3669 5.35784 71.0007 5.35933 71.6332 5.32641C72.0359 5.31193 72.2428 5.47482 72.3704 5.85784C72.9072 7.4694 73.4657 9.07364 74.0186 10.6798C74.0851 10.8731 74.163 11.0622 74.2993 11.4206C74.7917 9.91876 75.2297 8.5817 75.6687 7.24476C75.7879 6.88134 75.9609 6.52624 76.0168 6.15308C76.1228 5.44495 76.5154 5.26888 77.1667 5.32103C77.818 5.37319 78.4745 5.33706 79.1289 5.33129C79.527 5.3277 79.6641 5.46148 79.5112 5.87693C78.3821 8.94524 77.274 12.0215 76.1268 15.0829C76.0497 15.2887 75.7174 15.5058 75.4884 15.5246C74.7752 15.5818 74.054 15.5265 73.3373 15.5532C72.9038 15.5693 72.6989 15.3806 72.5538 14.9849C72.0058 13.4897 71.4301 12.005 70.8633 10.5169C70.7979 10.3451 70.7239 10.1768 70.5954 9.86789C70.0688 11.2533 69.6025 12.5146 69.1107 13.7656C68.2494 15.9568 68.9233 15.5149 66.5836 15.5359C65.0543 15.5496 65.3384 15.8341 64.7578 14.2273C63.7846 11.5313 62.8049 8.83777 61.8188 6.14654C61.5297 5.35268 61.5419 5.33373 62.3854 5.33257C63.0194 5.33168 63.6541 5.36422 64.2845 5.32219C64.7824 5.289 65.0001 5.50608 65.1422 5.956C65.6475 7.55577 66.1785 9.14681 66.7038 10.7406C66.7614 10.9174 66.845 11.084 66.98 11.4073Z"
        fill="#F8F8EF"></path>
    <path
        d="M7.39059 6.13483C7.39059 4.38898 7.41861 2.77653 7.37689 1.16613C7.36016 0.51951 7.5544 0.287052 8.19963 0.333953C8.89254 0.384314 9.59204 0.356764 10.2882 0.341258C10.6638 0.332929 10.8145 0.474142 10.8139 0.863961C10.8061 5.57202 10.8065 10.28 10.8151 14.988C10.8159 15.4077 10.6566 15.5604 10.2555 15.5489C9.68611 15.5326 9.11442 15.5217 8.5464 15.5515C7.96621 15.582 7.49874 15.5258 7.64379 14.7499C7.53868 14.7627 7.48872 14.7539 7.45918 14.7745C4.57015 16.7901 1.17041 15.5403 0.227348 12.1149C-0.481026 9.54042 0.507552 6.83528 2.61378 5.68069C4.22769 4.7961 5.80064 4.82313 7.39059 6.13483ZM3.3124 10.445C3.31417 11.7393 4.18128 12.7086 5.31415 12.684C6.42217 12.6599 7.27939 11.6951 7.28903 10.4604C7.29942 9.18674 6.43687 8.24462 5.26648 8.25115C4.11738 8.25769 3.31062 9.16342 3.3124 10.445Z"
        fill="#F8F8EF"></path>
    <path
        d="M42.3443 8.73971C43.3401 7.63689 44.1895 6.66093 45.0853 5.73047C45.3217 5.50723 45.6262 5.37205 45.9488 5.34719C46.7903 5.29593 47.6369 5.32592 48.4814 5.3322C48.6589 5.33348 48.8364 5.37065 49.2323 5.41691L45.4762 9.52499L49.6741 15.3279L49.5674 15.5431C48.9915 15.5431 48.4055 15.4732 47.842 15.5574C46.6114 15.7413 45.7762 15.2986 45.1446 14.2166C44.6763 13.4147 44.0443 12.7103 43.4836 11.9638C43.4543 11.9364 43.4204 11.9145 43.3836 11.8989C42.5568 12.4192 42.2749 13.143 42.3213 14.1399C42.3956 15.7335 42.5214 15.5295 40.9695 15.5424C40.4839 15.5465 39.9973 15.524 39.5128 15.5485C39.0715 15.5708 38.9189 15.394 38.9267 14.9507C38.948 13.7362 38.9339 12.5212 38.9339 11.3065C38.9339 7.91779 38.9466 4.52912 38.922 1.1407C38.9177 0.545977 39.0533 0.282121 39.6896 0.33466C40.3216 0.3828 40.9563 0.383269 41.5884 0.336068C42.168 0.29583 42.3641 0.492152 42.3565 1.09213C42.3272 3.41476 42.3445 5.7379 42.3447 8.06092L42.3443 8.73971Z"
        fill="#F8F8EF"></path>
    <path
        d="M87.4287 6.24498C87.7516 5.33233 87.7516 5.33232 88.8053 5.33232C89.2272 5.33232 89.6513 5.36 90.0702 5.32553C90.5865 5.28286 90.7197 5.51648 90.7175 5.99869C90.7033 8.95765 90.7042 11.9167 90.72 14.8758C90.7238 15.4251 90.5148 15.5854 90.0077 15.5535C89.481 15.5244 88.9532 15.5237 88.4265 15.5513C87.8794 15.5757 87.4053 15.5499 87.5533 14.7623C87.4292 14.783 87.3551 14.7722 87.3228 14.8042C85.4381 16.6736 81.9518 15.9266 80.5477 13.2092C79.1746 10.5521 80.0546 7.06382 82.4787 5.69087C84.1896 4.72196 85.5435 4.87357 87.4287 6.24498ZM85.2128 8.25506C84.0413 8.24327 83.1731 9.18515 83.1809 10.4592C83.1886 11.6992 84.047 12.6645 85.1576 12.6821C86.2777 12.6997 87.1925 11.6985 87.1964 10.4507C87.2004 9.21833 86.3403 8.26646 85.2128 8.25506Z"
        fill="#F8F8EF"></path>
    <path
        d="M57.2103 14.5728C55.6168 16.0111 54.0152 16.1647 52.3491 15.3443C50.6088 14.4877 49.7381 12.9722 49.583 11.0658C49.3964 8.76893 50.1171 6.85406 52.1812 5.65885C53.8259 4.70634 55.4027 4.89484 56.8654 6.12017C56.9268 6.17143 56.9957 6.21359 57.0683 6.26485C57.1728 5.95602 57.1891 5.55619 57.3853 5.421C57.6077 5.26723 57.9903 5.33873 58.3036 5.33284C58.8096 5.32335 59.3163 5.34245 59.822 5.32694C60.2024 5.31515 60.3462 5.47892 60.3453 5.859C60.3382 8.90296 60.339 11.9471 60.3476 14.9913C60.3491 15.4142 60.1779 15.5583 59.7816 15.5474C59.2126 15.5317 58.6418 15.5218 58.0737 15.5503C57.4938 15.5799 57.0247 15.5265 57.2103 14.5728ZM52.8361 10.4175C52.8279 11.7118 53.6766 12.6857 54.812 12.6857C55.915 12.6857 56.7956 11.7181 56.8086 10.4913C56.8225 9.20052 55.9839 8.25596 54.8215 8.25276C53.6648 8.24994 52.8443 9.1449 52.8362 10.4175H52.8361Z"
        fill="#F8F8EF"></path>
    <path
        d="M30.2102 6.52176C30.9388 6.08388 31.6123 5.48237 32.394 5.24761C34.4846 4.6197 36.6431 6.13899 36.8533 8.48789C37.0483 10.6664 36.9547 12.8705 36.9843 15.0638C36.989 15.4098 36.8068 15.5508 36.4652 15.5463C35.6843 15.5347 34.9028 15.5283 34.1223 15.5488C33.7003 15.5599 33.5758 15.3784 33.5802 14.975C33.5958 13.5903 33.5896 12.2053 33.5833 10.8203C33.5833 10.5011 33.5634 10.1822 33.5239 9.86558C33.3993 8.9059 32.9434 8.41665 32.1218 8.33425C31.3371 8.25557 30.607 8.74432 30.3441 9.57534C30.258 9.88198 30.2174 10.1998 30.2236 10.5185C30.2116 11.9886 30.2041 13.459 30.2261 14.9289C30.2334 15.4008 30.0782 15.5761 29.606 15.5559C28.8895 15.5251 28.1704 15.5303 27.4534 15.5528C27.0012 15.5672 26.799 15.4109 26.8008 14.9319C26.8114 11.9277 26.8121 8.92347 26.8027 5.91923C26.8017 5.48174 26.9782 5.309 27.4127 5.32399C28.0664 5.35723 28.7214 5.35561 29.3749 5.31913C29.9827 5.27505 30.2454 5.49378 30.1894 6.1099C30.1838 6.24754 30.1908 6.3854 30.2102 6.52176V6.52176Z"
        fill="#F8F8EF"></path>
    <path
        d="M104.001 11.6947C104.146 12.3483 104.551 12.667 105.055 12.8586C105.989 13.2139 106.937 13.1995 107.805 12.6957C108.25 12.4371 108.502 12.5192 108.83 12.8546C109.182 13.2147 109.599 13.5095 110.025 13.8642C109.042 14.9985 107.977 15.5309 106.739 15.748C104.297 16.1771 101.815 14.8111 100.922 12.5507C99.9647 10.1315 100.799 7.33523 102.894 5.9346C104.517 4.84972 106.775 4.82167 108.341 5.86695C109.931 6.92812 110.843 9.11531 110.497 11.002C110.394 11.564 110.035 11.6996 109.536 11.6972C107.911 11.6891 106.286 11.6944 104.661 11.6944L104.001 11.6947ZM103.964 9.48807H107.45C107.242 8.45009 106.627 7.96199 105.624 7.99979C104.7 8.03439 104.073 8.59247 103.964 9.48782V9.48807Z"
        fill="#F8F8EF"></path>
    <path
        d="M16.1449 6.7871C16.7331 5.90892 17.3195 5.27256 18.2477 5.16953C18.6407 5.11623 19.0402 5.13676 19.4258 5.23013C20.3095 5.47553 20.4433 5.81026 20.1078 6.67319C20.0617 6.79185 20.0208 6.91269 19.9741 7.0311C19.8109 7.44462 19.7526 8.005 19.4504 8.22721C19.1781 8.42775 18.6382 8.26001 18.2164 8.25206C16.9582 8.2281 16.1742 9.05438 16.1577 10.4653C16.1408 11.9124 16.1279 13.3606 16.1659 14.8069C16.1816 15.4086 15.9757 15.5934 15.4011 15.5553C14.7291 15.5109 14.0518 15.5297 13.3777 15.5492C12.9626 15.562 12.7564 15.4381 12.7578 14.9765C12.769 11.954 12.7693 8.93166 12.7587 5.90931C12.7573 5.46631 12.9273 5.30471 13.3627 5.32291C13.9944 5.36082 14.6279 5.3592 15.2594 5.31805C15.906 5.26384 16.1515 5.52859 16.1104 6.14958C16.1008 6.29605 16.125 6.44483 16.1449 6.7871Z"
        fill="#F8F8EF"></path>
    <path
        d="M96.0656 6.75081C96.6307 5.89697 97.2425 5.2601 98.1983 5.1572C98.5511 5.11163 98.9091 5.13002 99.2555 5.21153C100.206 5.465 100.354 5.8028 99.9934 6.72365C99.8312 7.13884 99.6407 7.54545 99.513 7.97114C99.3821 8.40761 99.1372 8.45233 98.7423 8.35635C97.1313 7.96512 96.0886 8.78487 96.0686 10.4611C96.0514 11.9098 96.0451 13.3591 96.0744 14.8074C96.0853 15.3491 95.9427 15.5881 95.3662 15.5541C94.6509 15.5118 93.9311 15.532 93.2137 15.5483C92.815 15.5574 92.6442 15.4132 92.6456 14.9918C92.6558 11.9662 92.6554 8.94064 92.6445 5.91505C92.6428 5.46654 92.8108 5.30956 93.244 5.3243C93.9188 5.34736 94.5966 5.3612 95.2697 5.32057C95.8012 5.28841 95.9997 5.4955 95.9728 6.01256C95.9621 6.21849 96.0222 6.42762 96.0656 6.75081Z"
        fill="#F8F8EF"></path>
    <path
        d="M152.707 10.7624C153.093 10.3652 153.369 10.0888 153.637 9.80366C154.885 8.47581 156.131 7.14662 157.375 5.81604C157.882 5.27463 158.602 5.14968 159.47 5.51938L155.576 9.65514L160.002 15.3439C159.106 15.745 158.463 15.6002 157.971 14.9661C156.867 13.5459 155.76 12.1277 154.711 10.7809C154.063 11.3804 153.423 11.9557 152.809 12.5589C152.713 12.6535 152.714 12.8739 152.712 13.0368C152.702 13.6966 152.686 14.3576 152.713 15.0165C152.739 15.6515 152.305 15.5395 151.94 15.5419C151.569 15.5447 151.15 15.638 151.166 15.0118C151.189 14.0543 151.171 13.0956 151.171 12.1374C151.171 8.45403 151.188 4.77038 151.156 1.08722C151.151 0.413819 151.429 0.343981 151.981 0.328988C152.583 0.312585 152.725 0.528632 152.72 1.10413C152.694 4.06339 152.708 7.02317 152.708 9.98269L152.707 10.7624Z"
        fill="#F8F8EF"></path>
    <path
        d="M130.719 15.8048C127.816 15.8092 125.591 13.4997 125.586 10.475C125.581 7.46549 127.816 5.10736 130.691 5.08994C133.547 5.07277 135.819 7.44231 135.825 10.4464C135.831 13.476 133.616 15.8003 130.719 15.8048ZM127.097 10.4513C127.095 12.6865 128.602 14.3744 130.649 14.3807C132.164 14.3855 133.307 13.6773 133.927 12.292C134.644 10.6901 134.496 9.11947 133.353 7.74703C132.378 6.57668 130.804 6.23492 129.372 6.79235C127.982 7.33364 127.1 8.75297 127.097 10.4513Z"
        fill="#F8F8EF"></path>
    <path
        d="M147.366 14.3588C146.564 14.8118 145.822 15.44 144.975 15.6701C142.474 16.3493 140.472 14.7813 140.413 12.1805C140.366 10.0949 140.415 8.00719 140.383 5.92098C140.373 5.27718 140.748 5.32983 141.164 5.3274C141.586 5.32497 141.952 5.28895 141.941 5.92686C141.909 7.6936 141.926 9.46125 141.933 11.2285C141.929 11.5899 141.955 11.951 142.01 12.308C142.343 14.2302 144.132 15.0517 145.786 14.0259C146.795 13.4004 147.413 12.5472 147.375 11.257C147.322 9.49124 147.388 7.72206 147.348 5.95571C147.333 5.275 147.716 5.33291 148.157 5.32523C148.606 5.31741 148.912 5.34009 148.905 5.95532C148.877 8.93598 148.886 11.9172 148.9 14.8981C148.902 15.3453 148.798 15.5772 148.304 15.553C147.854 15.531 147.375 15.6231 147.393 14.9251C147.4 14.6951 147.372 14.4646 147.366 14.3588Z"
        fill="#F8F8EF"></path>
    <path
        d="M21.4541 10.4418C21.4541 8.97336 21.4696 7.50469 21.4456 6.03666C21.4372 5.52202 21.5883 5.29598 22.1284 5.32238C22.8436 5.35736 23.5623 5.34685 24.2785 5.32507C24.7011 5.31225 24.8825 5.44193 24.8802 5.90338C24.8653 8.9253 24.8653 11.9473 24.8802 14.9693C24.8827 15.4292 24.7027 15.5641 24.2805 15.5531C23.543 15.5339 22.8042 15.5309 22.067 15.5543C21.5963 15.5691 21.4408 15.3749 21.4468 14.9108C21.4663 13.4214 21.4541 11.9315 21.4541 10.4418Z"
        fill="#F8F8EF"></path>
    <path
        d="M115.313 9.81965C115.372 8.18862 116.298 6.46801 118.381 5.51141C120.21 4.67141 122.367 5.10366 123.885 6.55683C124.432 7.07966 124.408 7.2037 123.855 7.7068C123.436 8.0888 123.18 7.82661 122.896 7.55225C121.893 6.58065 120.699 6.33052 119.387 6.6792C117.826 7.09413 116.817 8.57497 116.783 10.4137C116.734 13.0974 118.847 14.8846 121.417 14.2418C122.034 14.0881 122.614 13.6342 123.117 13.206C123.608 12.7887 123.812 13.1548 124.11 13.397C124.486 13.7045 124.335 13.9608 124.067 14.2434C122.642 15.7474 120.376 16.2224 118.411 15.4191C116.502 14.6392 115.308 12.7228 115.313 9.81965Z"
        fill="#F8F8EF"></path>
    <path
        d="M23.1635 4.05495C22.8996 4.0588 22.6376 4.00861 22.3934 3.9074C22.1491 3.80618 21.9277 3.65604 21.7424 3.46602C21.5571 3.276 21.4118 3.05003 21.3153 2.80174C21.2187 2.55344 21.1729 2.28796 21.1805 2.02129C21.1805 1.75455 21.2328 1.49046 21.3342 1.24422C21.4357 0.997983 21.5844 0.774473 21.7717 0.586583C21.959 0.398693 22.1813 0.250144 22.4257 0.149478C22.6701 0.0488118 22.9318 -0.0019707 23.1957 5.84968e-05C23.7292 0.011931 24.2372 0.232944 24.6124 0.616398C24.9877 0.999852 25.2007 1.51571 25.2066 2.055C25.203 2.32209 25.1472 2.58581 25.0424 2.83105C24.9377 3.07629 24.7861 3.29821 24.5962 3.48404C24.4064 3.66988 24.1821 3.81597 23.9362 3.91395C23.6903 4.01193 23.4277 4.05984 23.1635 4.05495V4.05495Z"
        fill="#F8F8EF"></path>
    <path
        d="M113.008 13.8047C113.139 13.8041 113.27 13.8297 113.391 13.88C113.513 13.9304 113.624 14.0045 113.717 14.0982C113.81 14.1918 113.884 14.3032 113.935 14.4258C113.985 14.5484 114.012 14.6799 114.012 14.8128C114.01 15.0701 113.909 15.3166 113.731 15.5008C113.554 15.6851 113.313 15.7929 113.058 15.8018C112.927 15.8102 112.796 15.7913 112.672 15.7463C112.548 15.7013 112.435 15.6312 112.339 15.5403C112.244 15.4495 112.167 15.3397 112.115 15.2179C112.063 15.096 112.036 14.9647 112.036 14.8319C112.03 14.6992 112.051 14.5666 112.097 14.4422C112.143 14.3178 112.214 14.2042 112.305 14.1081C112.395 14.0121 112.505 13.9357 112.626 13.8836C112.746 13.8314 112.877 13.8046 113.008 13.8047V13.8047Z"
        fill="#F8F8EF"></path>
    <path
        d="M138.684 14.7871C138.69 14.9196 138.668 15.0518 138.621 15.1756C138.574 15.2995 138.503 15.4123 138.411 15.5073C138.32 15.6023 138.21 15.6774 138.089 15.728C137.968 15.7787 137.837 15.8037 137.706 15.8018C137.581 15.8053 137.455 15.7836 137.338 15.7379C137.22 15.6921 137.113 15.6232 137.022 15.5352C136.932 15.4472 136.859 15.3418 136.809 15.2251C136.759 15.1085 136.732 14.983 136.73 14.8558C136.719 14.7235 136.735 14.5903 136.777 14.4645C136.819 14.3387 136.886 14.223 136.974 14.1245C137.062 14.0261 137.169 13.947 137.289 13.8921C137.408 13.8373 137.538 13.808 137.669 13.8059C137.801 13.7993 137.932 13.8198 138.055 13.8661C138.178 13.9125 138.291 13.9838 138.386 14.0757C138.481 14.1675 138.556 14.278 138.608 14.4003C138.659 14.5226 138.685 14.6542 138.684 14.7871V14.7871Z"
        fill="#F8F8EF"></path>
</svg>