<svg width="21" height="21" viewBox="0 0 21 23" fill="none" xmlns="http://www.w3.org/2000/svg"
    class="icon icon-cocktail">
    <path
        d="M20.5909 0.657363C20.3897 0.227255 20.0035 0 19.4741 0C13.3925 0.00122888 7.311 0.00122888 1.22949 0C0.558496 0 0.24961 0.354006 0.10946 0.650956C-0.088315 1.06957 -0.0163982 1.50898 0.311548 1.88862C0.47654 2.07903 0.641143 2.26977 0.805356 2.46083L2.27068 4.15722C4.51947 6.75937 6.84485 9.45018 9.12699 12.1005C9.17147 12.1586 9.19706 12.2284 9.20044 12.3008C9.20682 14.677 9.20655 17.0935 9.20637 19.4297V20.7626C8.94081 20.7626 8.67511 20.7624 8.40925 20.7618C7.78698 20.7605 7.14349 20.7593 6.50989 20.7655C6.35827 20.7623 6.20752 20.7888 6.06655 20.8434C5.92557 20.898 5.79722 20.9796 5.68907 21.0834C5.58092 21.1872 5.49517 21.3111 5.43686 21.4478C5.37855 21.5845 5.34888 21.7313 5.34959 21.8793C5.34797 22.0266 5.3763 22.1728 5.43293 22.3093C5.48957 22.4458 5.57338 22.57 5.67951 22.6747C5.78497 22.7777 5.91032 22.8592 6.04827 22.9145C6.18623 22.9698 6.33406 22.9978 6.48319 22.9969C7.49697 22.9986 8.59444 23 9.74459 23C11.174 23 12.6842 22.9978 14.2139 22.9912C14.4521 22.9821 14.6828 22.9071 14.8792 22.7751C15.0781 22.6434 15.2269 22.4511 15.3023 22.2282C15.3777 22.0054 15.3755 21.7644 15.2961 21.5429C15.2224 21.3145 15.0752 21.1155 14.8764 20.9753C14.6776 20.8352 14.4377 20.7614 14.1925 20.7649C13.7838 20.7594 13.3693 20.7607 12.9683 20.7617C12.7984 20.7621 12.6286 20.7624 12.4589 20.7625H11.4907V19.5066C11.4907 17.1388 11.4902 14.6904 11.4964 12.2825C11.5009 12.217 11.5255 12.1544 11.5668 12.1026C13.0297 10.4009 14.5221 8.67458 15.9653 7.00506L17.8643 4.808C18.7033 3.83601 19.5429 2.8642 20.3832 1.89257C20.7168 1.50696 20.7885 1.07992 20.5909 0.657363ZM17.0802 2.25026L10.3488 10.0384L3.61708 2.25026H17.0802Z"
        fill="currentColor"></path>
</svg>