<svg width="30" height="21" viewBox="0 0 30 21" fill="none" xmlns="http://www.w3.org/2000/svg"
    class="icon icon-truck">
    <path
        d="M29.7684 8.05332C29.7715 7.80325 29.724 7.55509 29.6289 7.32336C29.4312 6.84801 29.2407 6.36965 29.0464 5.89289C28.691 5.02103 28.3352 4.14936 27.979 3.27788C27.7946 2.82806 27.5002 2.46816 27.0721 2.22265C26.7361 2.03012 26.3539 1.93035 25.9655 1.9338C24.7008 1.93323 23.4361 1.93298 22.1714 1.93304C22.0892 1.93304 22.007 1.92611 21.9135 1.9219C21.9135 1.85238 21.9138 1.79938 21.9135 1.74638C21.9121 1.51604 21.9178 1.28534 21.9073 1.05535C21.8999 0.835571 21.824 0.623428 21.6898 0.448028C21.5557 0.272628 21.3699 0.142567 21.158 0.0757006C21.0026 0.0268621 20.8404 0.00191755 20.6773 0.00173694C14.5026 -0.000873813 8.32794 -0.000542006 2.15323 0.00273616C2.02427 -0.000644568 1.89528 0.00848845 1.76812 0.0300026C0.915151 0.199132 0.353457 0.695983 0.091134 1.51619C0.0174823 1.74639 -5.94136e-05 1.98624 1.50994e-07 2.22798C0.00131057 6.65471 0.0021938 11.0814 0.00265046 15.5082C0.00182716 15.6355 0.0100076 15.7628 0.0271317 15.889C0.130834 16.6145 0.512018 17.1505 1.16779 17.4919C1.49025 17.6598 1.84058 17.7195 2.20124 17.7229C2.58308 17.7266 2.96498 17.7238 3.34682 17.7238H3.5625C3.69265 17.9958 3.8004 18.2488 3.93133 18.4895C4.34959 19.2586 4.94264 19.8544 5.75326 20.2191C6.32716 20.4774 6.92802 20.635 7.56453 20.607C7.82167 20.5953 8.07781 20.5677 8.33145 20.5243C9.10973 20.3924 9.78555 20.0561 10.3488 19.505C10.829 19.0352 11.1641 18.4729 11.424 17.8624C11.4427 17.8185 11.463 17.7753 11.4806 17.7365H18.306C18.3325 17.8056 18.3573 17.869 18.3812 17.9329C18.6209 18.5748 18.9917 19.1311 19.5116 19.5835C20.2974 20.2673 21.2107 20.6301 22.2659 20.6095C22.4638 20.6024 22.6612 20.5847 22.8571 20.5565C23.5173 20.4719 24.1226 20.2465 24.6607 19.8546C25.2071 19.4566 25.6094 18.9403 25.9153 18.3473C26.0186 18.147 26.1084 17.9402 26.2102 17.7239C26.2631 17.7239 26.3221 17.7239 26.381 17.7239C26.743 17.7247 27.1051 17.7289 27.4671 17.725C27.6407 17.7272 27.8142 17.7166 27.9861 17.6931C28.5495 17.6018 29.0027 17.3234 29.3478 16.8745C29.6613 16.4667 29.7707 16 29.7698 15.495C29.766 13.0145 29.7655 10.5339 29.7684 8.05332ZM21.9421 4.2018H25.8975L26.9193 6.71674C26.7105 6.78806 22.4291 6.81247 21.951 6.74984C21.9225 6.64463 21.9128 4.42484 21.9421 4.2018ZM7.51143 18.3711C6.48019 18.3678 5.72068 17.5637 5.72187 16.5928C5.72309 15.6091 6.5393 14.8148 7.53859 14.8187C7.77453 14.8196 8.00798 14.8665 8.22554 14.9567C8.44309 15.047 8.64046 15.1789 8.80631 15.3448C8.97216 15.5107 9.10322 15.7074 9.19197 15.9235C9.28071 16.1397 9.3254 16.371 9.32344 16.6043C9.33369 17.4774 8.65275 18.3748 7.51143 18.3711ZM19.5029 13.6184C18.978 14.0801 18.5859 14.6708 18.3662 15.3306C18.3218 15.4614 18.3205 15.4617 18.1781 15.4617C15.9866 15.4619 13.795 15.4619 11.6035 15.4617H11.4797C11.4537 15.4045 11.4283 15.3526 11.4062 15.2993C11.1946 14.7882 10.9251 14.3108 10.5584 13.8915C9.9324 13.1757 9.14195 12.7637 8.19368 12.6356C7.52114 12.5448 6.85911 12.5807 6.20976 12.7743C5.30614 13.0437 4.62784 13.605 4.12098 14.3809C3.92932 14.6784 3.76592 14.9929 3.63285 15.3202C3.61426 15.365 3.5944 15.4094 3.57328 15.4579H2.32061C2.31292 15.316 2.29917 15.1763 2.29878 15.0365C2.29622 14.0759 2.2954 13.1154 2.29634 12.1549C2.29634 12.0879 2.30399 12.0209 2.30947 11.9336V9.63653H2.30664V2.27018H19.5929C19.6135 2.33531 19.6265 5.39948 19.6234 7.55703H19.6271V12.0839C19.628 12.1 19.6286 12.1159 19.6287 12.1317C19.6305 12.5287 19.6279 12.9257 19.6332 13.3226C19.6363 13.3785 19.6261 13.4344 19.6035 13.4857C19.5808 13.5371 19.5464 13.5825 19.5029 13.6184ZM22.2464 18.3715C21.1487 18.3693 20.4361 17.4932 20.4453 16.5897C20.4489 16.1181 20.6415 15.6671 20.981 15.3358C21.3205 15.0045 21.779 14.8198 22.256 14.8223C22.7331 14.8248 23.1896 15.0142 23.5255 15.3491C23.8614 15.684 24.0492 16.1369 24.0478 16.6085C24.0606 17.5055 23.3349 18.3738 22.2464 18.3715ZM27.4593 15.4565H26.1973C26.1675 15.3872 26.1352 15.3114 26.1028 15.2357C25.8391 14.6197 25.4879 14.0625 24.9862 13.6055C24.4472 13.1145 23.81 12.8196 23.0976 12.6713C22.7618 12.6014 22.4211 12.5797 22.0798 12.5614C22.036 12.559 21.9922 12.5552 21.9383 12.5514V9.06142C22.4316 9.00577 27.2447 9.00326 27.4593 9.05909V15.4565Z"
        fill="currentColor"></path>
</svg>