<svg id="Layer_1" data-name="Layer 1" xmlns="http://www.w3.org/2000/svg" viewBox="0 0 66.2 68.2">
    <defs>
        <style>.cls-1{fill:#fff;}</style>
    </defs>
    <g id="logo">
        <g id="logo-2" data-name="logo">
            <ellipse class="cls-1" cx="33.1" cy="34.1" rx="33.1" ry="34.1"></ellipse>
        </g>
    </g>
    <polygon
        points="14.6 20.9 18.5 20.9 21.5 26.4 24.4 20.9 28.1 20.9 23.2 29.7 23.2 34.4 19.6 34.4 19.6 29.8 14.6 20.9"></polygon>
    <path
        d="M29.9,31.9a7.1,7.1,0,0,1,14.2,0,7.1,7.1,0,0,1-14.2,0m10.5,0a3.51,3.51,0,1,0-7,0,3.5,3.5,0,0,0,3.5,3.8c2.3,0,3.5-1.7,3.5-3.8"
        transform="translate(-2.9 -4.2)"></path>
    <polygon
        points="44.5 23.9 41 23.9 41 20.9 51.6 20.9 51.6 23.9 48.1 23.9 48.1 34.4 44.5 34.4 44.5 23.9"></polygon>
    <path
        d="M22.1,53.4H18.6V39.9h5c3.6,0,5.6,2.3,5.6,5.3s-2,5.3-5.6,5.3H22.1Zm1.3-6a2,2,0,0,0,2.2-2.2,2,2,0,0,0-2.2-2.3H22.1v4.5Z"
        transform="translate(-2.9 -4.2)"></path>
    <path
        d="M29.8,46.7a7.1,7.1,0,0,1,14.2,0,7.1,7.1,0,0,1-14.2,0m10.6,0a3.51,3.51,0,1,0-7,0,3.51,3.51,0,1,0,7,0"
        transform="translate(-2.9 -4.2)"></path>
    <path d="M44,51.7a1.9,1.9,0,1,1,1.9,2,2.06,2.06,0,0,1-1.9-2" transform="translate(-2.9 -4.2)"></path>
</svg>